<?xml version="1.0" standalone="no"?>
<!DOCTYPE svg PUBLIC "-//W3C//DTD SVG 20010904//EN"
 "http://www.w3.org/TR/2001/REC-SVG-20010904/DTD/svg10.dtd">
<svg version="1.0" xmlns="http://www.w3.org/2000/svg"
 width="645.000000pt" height="146.000000pt" viewBox="0 0 645.000000 146.000000"
 preserveAspectRatio="xMidYMid meet">

<g transform="translate(0.000000,146.000000) scale(0.100000,-0.100000)"
fill="#000000" stroke="none">
<path d="M50 725 l0 -645 1125 0 1125 0 0 645 0 645 -1125 0 -1125 0 0 -645z
m980 390 l0 -155 -177 0 c-152 0 -179 2 -195 17 -30 27 -86 22 -114 -11 -28
-31 -30 -56 -9 -95 22 -43 80 -56 119 -26 16 12 57 15 198 15 l178 0 0 -340 0
-340 -440 0 -440 0 0 140 0 140 193 0 c153 -1 196 -4 211 -15 23 -17 69 -20
95 -5 31 16 46 65 31 100 -7 17 -21 35 -31 40 -26 15 -72 12 -95 -5 -15 -11
-58 -14 -211 -15 l-193 0 0 355 0 355 440 0 440 0 0 -155z m390 8 c-1 -114 -4
-152 -15 -167 -38 -50 3 -126 68 -126 66 0 108 89 64 138 -14 16 -17 41 -17
160 l0 142 150 0 150 0 0 -138 c0 -115 -3 -144 -19 -174 -23 -45 -17 -82 17
-108 72 -57 172 33 117 106 -11 15 -14 53 -15 167 l0 147 140 0 140 0 0 -545
0 -545 -240 0 -240 0 0 134 c0 106 3 136 15 146 23 19 19 80 -7 107 -28 30
-83 31 -115 1 -27 -25 -32 -88 -8 -108 12 -10 15 -40 15 -146 l0 -134 -245 0
-245 0 0 545 0 545 145 0 145 0 0 -147z m-786 -179 c30 -30 13 -74 -29 -74
-60 0 -59 88 2 90 6 0 19 -7 27 -16z m870 0 c30 -30 13 -74 -29 -74 -60 0 -59
88 2 90 6 0 19 -7 27 -16z m394 4 c29 -29 7 -78 -35 -78 -35 0 -52 43 -28 70
20 23 45 26 63 8z m-1270 -404 c29 -20 28 -50 -3 -70 -24 -16 -27 -16 -45 1
-24 22 -25 43 -3 67 20 22 23 22 51 2z m1061 6 c36 -19 36 -61 0 -81 -46 -24
-86 54 -41 80 21 13 20 13 41 1z"/>
<path d="M2800 989 c-83 -25 -130 -95 -116 -172 10 -54 59 -90 157 -116 97
-26 129 -44 129 -71 0 -67 -156 -69 -231 -3 -15 13 -20 11 -43 -20 -14 -19
-26 -39 -26 -45 0 -20 86 -62 148 -73 84 -15 163 2 210 46 33 30 36 38 40 97
4 63 3 66 -31 100 -27 28 -53 40 -118 57 -46 13 -94 29 -107 38 -31 19 -25 54
12 72 35 16 116 2 156 -28 l24 -19 28 36 c15 21 28 40 28 44 0 3 -24 19 -54
33 -62 30 -151 40 -206 24z"/>
<path d="M4802 988 c-7 -7 -12 -24 -12 -38 0 -34 17 -50 52 -50 18 0 33 8 44
25 15 23 15 27 0 50 -18 27 -63 34 -84 13z"/>
<path d="M4610 899 l0 -90 -31 22 c-44 31 -114 36 -159 11 -129 -70 -106 -315
33 -353 46 -12 105 0 127 26 17 21 30 19 30 -5 0 -17 7 -20 45 -20 l45 0 0
250 0 250 -45 0 -45 0 0 -91z m-32 -139 c31 -19 32 -22 32 -84 0 -54 -4 -69
-22 -86 -38 -35 -93 -30 -132 12 -25 28 -28 36 -23 81 8 86 73 121 145 77z"/>
<path d="M5970 740 l0 -250 50 0 c44 0 50 3 50 20 0 20 0 20 30 -2 21 -15 44
-22 78 -22 100 0 157 70 157 194 0 114 -54 175 -155 175 -48 0 -63 -4 -84 -24
l-26 -24 0 91 0 92 -50 0 -50 0 0 -250z m241 11 c24 -25 29 -38 29 -79 0 -90
-74 -133 -147 -86 -21 13 -23 23 -23 89 0 71 1 75 28 89 43 24 80 20 113 -13z"/>
<path d="M3222 839 c-148 -74 -123 -306 38 -349 59 -16 138 1 171 36 l24 26
-29 23 c-27 22 -31 22 -52 8 -69 -45 -154 6 -154 92 0 56 30 93 83 102 30 4
45 1 66 -15 l28 -21 28 29 c32 33 28 43 -25 70 -52 27 -123 26 -178 -1z"/>
<path d="M3574 841 c-53 -24 -58 -34 -39 -72 16 -30 17 -30 36 -13 11 10 41
19 73 22 48 4 55 2 74 -23 21 -26 30 -75 15 -75 -5 0 -16 7 -26 15 -28 21 -92
28 -132 15 -50 -17 -75 -53 -75 -111 0 -39 5 -53 30 -77 47 -48 93 -49 193 -7
12 5 17 3 17 -9 0 -12 10 -16 45 -16 l45 0 0 133 c0 153 -12 191 -70 219 -46
24 -133 23 -186 -1z m148 -208 c53 -48 -25 -109 -99 -78 -30 13 -34 18 -31 47
5 56 82 74 130 31z"/>
<path d="M4080 849 c-13 -6 -33 -17 -42 -26 -17 -15 -18 -15 -18 5 0 20 -5 22
-50 22 l-50 0 0 -180 0 -180 50 0 50 0 0 128 0 128 29 17 c39 23 76 22 101 -3
18 -18 20 -33 20 -145 l0 -125 45 0 45 0 0 144 c0 80 -4 156 -10 170 -18 47
-105 71 -170 45z"/>
<path d="M5645 844 c-73 -38 -105 -91 -105 -174 0 -149 142 -228 293 -163 42
18 44 24 21 58 -15 22 -17 23 -49 9 -67 -28 -140 -10 -163 40 l-12 26 135 0
135 0 0 43 c0 64 -36 126 -90 154 -51 27 -121 30 -165 7z m114 -65 c30 -11 51
-35 51 -58 0 -7 -33 -11 -90 -11 l-90 0 12 26 c7 15 26 33 43 40 37 16 35 16
74 3z"/>
<path d="M4800 670 l0 -180 45 0 45 0 0 180 0 180 -45 0 -45 0 0 -180z"/>
<path d="M4946 826 c3 -13 27 -93 53 -178 l47 -153 50 -3 50 -3 37 121 c21 66
39 120 41 120 4 0 43 -122 72 -223 5 -15 15 -17 56 -15 l50 3 54 175 c29 96
54 176 54 178 0 1 -22 2 -49 2 l-48 0 -28 -102 c-15 -57 -31 -109 -35 -117 -5
-9 -21 27 -46 102 l-38 117 -43 0 -42 0 -37 -115 c-21 -63 -41 -112 -44 -109
-3 3 -19 53 -35 112 l-30 107 -48 3 c-46 3 -47 2 -41 -22z"/>
</g>
</svg>
